<?xml version="1.0" standalone="no"?>
<!DOCTYPE svg PUBLIC "-//W3C//DTD SVG 20010904//EN"
 "http://www.w3.org/TR/2001/REC-SVG-20010904/DTD/svg10.dtd">
<svg version="1.0" xmlns="http://www.w3.org/2000/svg"
 width="296.000000pt" height="438.000000pt" viewBox="0 0 296.000000 438.000000"
 preserveAspectRatio="xMidYMid meet">
<metadata>
Created by potrace 1.16, written by Peter Selinger 2001-2019
</metadata>
<g transform="translate(0.000000,438.000000) scale(0.100000,-0.100000)"
fill="#000000" stroke="none">
<path d="M1240 4306 c-307 -54 -570 -195 -787 -419 -185 -191 -312 -432 -370
-700 -25 -117 -25 -457 0 -574 63 -292 182 -506 415 -746 148 -153 390 -448
504 -616 162 -237 314 -614 443 -1098 15 -57 31 -103 35 -103 4 0 20 46 35
103 129 484 281 861 443 1098 114 168 356 463 504 616 233 240 352 454 415
746 25 117 25 457 0 574 -61 282 -188 517 -391 719 -199 200 -431 327 -709
390 -98 22 -433 28 -537 10z m418 -451 c372 -71 665 -345 764 -715 33 -123 33
-357 0 -480 -116 -435 -497 -730 -942 -730 -445 0 -826 295 -942 730 -33 123
-33 357 0 480 98 367 389 641 758 714 94 19 265 19 362 1z"/>
<path d="M1392 3606 l-37 -34 -3 -94 c-2 -66 10 -198 42 -458 25 -201 48 -395
52 -432 7 -66 8 -68 34 -68 26 0 27 2 34 68 4 37 27 231 52 432 32 260 44 392
42 458 l-3 94 -37 34 c-33 29 -45 34 -88 34 -43 0 -55 -5 -88 -34z"/>
<path d="M1394 2316 c-31 -31 -34 -40 -34 -91 0 -51 3 -60 34 -91 31 -31 40
-34 91 -34 51 0 60 3 91 34 31 31 34 40 34 91 0 51 -3 60 -34 91 -31 31 -40
34 -91 34 -51 0 -60 -3 -91 -34z"/>
</g>
</svg>
